:SAMPLES-PER-SECOND 30
:FULLY-SPECIFIED
:DEGREES
50
root  54.6165 38.1976 -4.21884 -148.678 -78.709 143.744
RightUpLeg  -7.90067 1.69017 -10.2358
RightLeg  60.5697 3.75894 6.71541
RightFoot  -2.12053 -1.12076 13.6597
RightToes  -8.14909e-010 0 -3.6325e-017
Spine  3.79685 0.249225 -11.1286
Spine1  4.52848 -1.23288 1.83348
HEad  -0.0614441 31.7921 -12.488
LeftShoulder1  0.0560378 3.21377 -12.0099
LeftArm  -12.6217 -59.3051 -43.1254
LeftForeArm  24.5205 -7.68683 -4.20297
LeftHand  -0.0013968 7.71944 1.88159
RightShoulder  -0.327301 -4.52101 25.0626
RightArm  18.3449 3.98441 52.9816
RightForeArm  14.2763 16.5602 5.36578
RightHand  -0.0615451 3.70093 -1.04153
LeftUpLeg  -8.05019 5.78832 -9.67009
LeftLeg  20.3215 10.94 3.18274
LeftFoot  -7.64757 -0.171089 6.73799
LeftToes  1.648e-009 -9.21574e-011 2.55256e-011
51
root  53.7345 38.3117 -4.19376 -154.303 -78.4884 149.033
RightUpLeg  -10.8427 2.81482 -9.69658
RightLeg  60.1106 3.0806 5.32268
RightFoot  -2.55292 -0.923072 11.7396
RightToes  -8.14909e-010 0 -3.6325e-017
Spine  4.68034 0.104634 -10.7998
Spine1  3.54986 -1.6069 2.74468
HEad  -0.125853 30.4977 -11.9354
LeftShoulder1  0.103465 3.00469 -14.0114
LeftArm  -10.4058 -53.9681 -43.5357
LeftForeArm  26.7757 -9.2568 -5.37283
LeftHand  -0.00867954 8.01628 1.45448
RightShoulder  -0.395795 -4.72136 25.5487
RightArm  17.4562 3.3533 51.5734
RightForeArm  13.671 17.1965 5.03347
RightHand  -0.0790927 4.16301 -1.23627
LeftUpLeg  -5.87764 6.25086 -8.78623
LeftLeg  19.9007 11.2404 2.97658
LeftFoot  -8.73528 -0.101676 6.75883
LeftToes  1.648e-009 -9.21574e-011 2.55256e-011
52
root  52.8423 38.3875 -4.18627 -158.284 -78.7867 152.897
RightUpLeg  -13.307 3.25018 -9.06738
RightLeg  57.1176 2.74964 4.15856
RightFoot  -3.41895 -0.745325 10.4116
RightToes  -8.14909e-010 0 -3.6325e-017
Spine  4.25577 -0.362649 -10.3328
Spine1  4.35056 -2.18316 3.48349
HEad  -1.07857 28.4808 -11.2416
LeftShoulder1  0.118782 3.01516 -17.1857
LeftArm  -6.97984 -48.3201 -44.1898
LeftForeArm  27.7938 -11.4196 -6.22493
LeftHand  -0.0179795 8.0019 1.07338
RightShoulder  -0.43555 -4.82752 25.9976
RightArm  16.5891 3.32119 50.4067
RightForeArm  12.8509 16.9218 5.04294
RightHand  -0.105881 4.7161 -1.50766
LeftUpLeg  -3.90693 6.32715 -8.01405
LeftLeg  19.4151 11.2785 2.88721
LeftFoot  -9.96589 -0.0192275 6.62046
LeftToes  1.648e-009 -9.21574e-011 2.55256e-011
53
root  51.985 38.4504 -4.18767 -161.413 -79.1691 155.838
RightUpLeg  -15.0037 3.43943 -8.58812
RightLeg  51.5618 2.79275 3.41328
RightFoot  -4.58817 -0.634617 10.1969
RightToes  -8.14909e-010 0 -3.6325e-017
Spine  4.39764 -0.675884 -9.56309
Spine1  4.86649 -2.47265 3.68268
HEad  -2.17686 26.4193 -10.3389
LeftShoulder1  0.215875 2.70297 -20.6677
LeftArm  -1.59964 -42.4582 -44.0899
LeftForeArm  26.0248 -13.0894 -7.23101
LeftHand  -0.00966772 7.58201 1.55747
RightShoulder  -0.546376 -5.15933 26.2193
RightArm  15.6482 2.83799 49.6373
RightForeArm  12.6859 16.6545 5.00757
RightHand  -0.128113 4.98599 -1.73314
LeftUpLeg  -1.86047 6.61234 -7.2922
LeftLeg  18.7342 11.0394 2.59598
LeftFoot  -11.0058 0.0464749 6.77194
LeftToes  1.648e-009 -9.21574e-011 2.55256e-011
54
root  51.1462 38.4569 -4.22822 -163.157 -79.6791 157.45
RightUpLeg  -16.037 3.13627 -8.27721
RightLeg  44.0356 3.30134 3.09648
RightFoot  -4.78009 -0.579005 9.51506
RightToes  -8.14909e-010 0 -3.6325e-017
Spine  5.22668 -1.18328 -9.08472
Spine1  4.79607 -2.90996 3.43333
HEad  -3.18785 24.9046 -8.97714
LeftShoulder1  0.212863 2.79044 -23.4268
LeftArm  1.53549 -37.1474 -43.9807
LeftForeArm  26.2896 -12.1219 -8.49811
LeftHand  -0.0162898 7.35662 1.4237
RightShoulder  -0.614113 -5.3473 26.5944
RightArm  14.7511 2.21754 49.242
RightForeArm  13.7332 15.8364 5.08844
RightHand  -0.0819644 4.66875 -1.23886
LeftUpLeg  0.0509316 6.88005 -6.64555
LeftLeg  18.1876 10.4131 2.11991
LeftFoot  -12.1575 0.121412 6.78304
LeftToes  1.648e-009 -9.21574e-011 2.55256e-011
55
root  50.2881 38.4992 -4.29724 -164.264 -80.1725 158.885
RightUpLeg  -16.5624 2.30691 -7.90615
RightLeg  34.1638 4.0119 2.71801
RightFoot  -4.25533 -0.597747 9.16944
RightToes  -8.14909e-010 0 -3.6325e-017
Spine  4.79106 -1.67617 -8.40458
Spine1  5.91594 -3.18388 3.13802
HEad  -4.11996 23.007 -7.46674
LeftShoulder1  0.217698 2.81507 -25.5499
LeftArm  0.722784 -32.5676 -44.3076
LeftForeArm  32.2146 -8.43645 -9.9095
LeftHand  -0.0436644 7.77545 -0.0993348
RightShoulder  -0.60331 -5.31503 26.5792
RightArm  13.2888 1.49593 49.47
RightForeArm  15.1124 14.2846 5.3017
RightHand  -0.0824906 4.33497 -1.26891
LeftUpLeg  1.8823 7.09177 -5.95572
LeftLeg  16.8899 9.78052 1.40949
LeftFoot  -13.0659 0.176943 6.53445
LeftToes  1.648e-009 -9.21574e-011 2.55256e-011
